<svg width="919" height="818" viewBox="0 0 919 818" fill="none" xmlns="http://www.w3.org/2000/svg">
<path d="M96.2183 746.909C96.4017 746.537 96.9317 746.537 97.1151 746.909L104.85 762.587C104.913 762.715 105.028 762.81 105.165 762.848L125.597 768.518C126.086 768.654 126.086 769.346 125.597 769.482L105.165 775.152C105.028 775.19 104.913 775.285 104.85 775.413L97.1151 791.091C96.9317 791.463 96.4017 791.463 96.2183 791.091L88.4829 775.413C88.4199 775.285 88.3055 775.19 88.1682 775.152L67.736 769.482C67.2476 769.346 67.2476 768.654 67.736 768.518L88.1682 762.848C88.3055 762.81 88.4199 762.715 88.4829 762.587L96.2183 746.909Z" fill="white"/>
<path d="M753.218 173.909C753.402 173.537 753.932 173.537 754.115 173.909L761.85 189.587C761.913 189.715 762.028 189.81 762.165 189.848L782.597 195.518C783.086 195.654 783.086 196.346 782.597 196.482L762.165 202.152C762.028 202.19 761.913 202.285 761.85 202.413L754.115 218.091C753.932 218.463 753.402 218.463 753.218 218.091L745.483 202.413C745.42 202.285 745.305 202.19 745.168 202.152L724.736 196.482C724.248 196.346 724.248 195.654 724.736 195.518L745.168 189.848C745.305 189.81 745.42 189.715 745.483 189.587L753.218 173.909Z" fill="#100A4C"/>
<circle cx="473" cy="485" r="307" fill="#100A4C"/>
<circle cx="469.5" cy="481.5" r="228.5" fill="#4C42AF"/>
<path style="mix-blend-mode:multiply" d="M740.108 425.679L661.221 470.967V528.092L741.615 576.027L820.116 529.599V472.474L740.108 425.679Z" fill="url(#paint0_linear_0)"/>
<path d="M526.109 526.015L573.015 553.567L697.429 482.105" stroke="#FF0069" stroke-width="0.7" stroke-linecap="round" stroke-linejoin="round"/>
<path d="M572.813 556.581C576.731 556.581 579.907 554.458 579.907 551.839C579.907 549.22 576.731 547.097 572.813 547.097C568.894 547.097 565.718 549.22 565.718 551.839C565.718 554.458 568.894 556.581 572.813 556.581Z" fill="#FF0069"/>
<path d="M846.473 476.72L739.85 414.357L634.735 474.717L741.872 536.069L846.473 476.72Z" stroke="#FF0069" stroke-width="0.7" stroke-linecap="round" stroke-linejoin="round"/>
<g style="mix-blend-mode:color-dodge">
<path style="mix-blend-mode:color-dodge" d="M739.85 414.357L846.454 476.72L741.835 536.069L634.698 474.717L739.813 414.357H739.85ZM739.813 410.479C739.167 410.494 738.536 410.671 737.975 410.993L632.805 471.353C632.213 471.693 631.721 472.183 631.379 472.773C631.037 473.364 630.857 474.034 630.857 474.717C630.857 475.399 631.037 476.069 631.379 476.66C631.721 477.251 632.213 477.74 632.805 478.08L739.942 539.433C740.527 539.766 741.189 539.942 741.863 539.942C742.536 539.942 743.198 539.766 743.783 539.433L848.402 480.084C848.99 479.743 849.478 479.253 849.817 478.665C850.156 478.076 850.334 477.409 850.334 476.729C850.334 476.05 850.156 475.383 849.817 474.794C849.478 474.205 848.99 473.716 848.402 473.375L741.798 411.012C741.207 410.665 740.535 410.481 739.85 410.479H739.813Z" fill="url(#paint1_linear_0)"/>
</g>
<path d="M741.541 520.538V461.538L661.147 415.478V472.603L741.541 520.538Z" fill="url(#paint2_linear_0)"/>
<path d="M741.541 461.538V520.538L820.061 474.129V416.985L741.541 461.538Z" fill="url(#paint3_linear_0)"/>
<path d="M820.06 416.985L740.034 370.19L661.147 415.478L741.541 461.538L820.06 416.985Z" fill="url(#paint4_linear_0)"/>
<path d="M812.874 416.544L741.596 456.833L668.352 415.992L741.026 374.582L812.874 416.544Z" fill="url(#paint5_radial_0)"/>
<path d="M743.177 399.469C741.715 399.469 740.312 398.888 739.278 397.854C738.244 396.82 737.663 395.417 737.663 393.955V390.591H748.801V393.955C748.801 394.688 748.655 395.415 748.371 396.091C748.087 396.767 747.671 397.38 747.147 397.893C746.624 398.407 746.003 398.811 745.321 399.081C744.639 399.352 743.91 399.484 743.177 399.469Z" fill="#FF0069"/>
<path d="M750.106 364.694H736.229V392.742H750.106V364.694Z" fill="#2C2C4F"/>
<path d="M738.343 375.759H747.992" stroke="#FF0069" stroke-width="0.45" stroke-linecap="round" stroke-linejoin="round"/>
<path d="M738.343 379.894H747.992" stroke="#FF0069" stroke-width="0.45" stroke-linecap="round" stroke-linejoin="round"/>
<path d="M738.343 384.838H747.992" stroke="#FF0069" stroke-width="0.45" stroke-linecap="round" stroke-linejoin="round"/>
<path d="M743.067 281.304L728.638 291.211V307.936L732.976 311.612C732.976 311.612 730.348 314.516 728.638 316.52V356.57H757.716V291.156L743.067 281.304Z" fill="white"/>
<path d="M743.177 356.827V289.079" stroke="#2C2C4F" stroke-width="0.45" stroke-linecap="round" stroke-linejoin="round"/>
<path d="M755.141 342.177L743.184 330.22L731.227 342.177L743.184 354.134L755.141 342.177Z" fill="url(#paint6_linear_0)"/>
<path d="M786.278 355.798L783.687 351.148L782.455 352.802H778.742L764.204 346.516L743.177 356.827L722.132 346.516L707.612 352.802H703.899L702.649 351.148L700.076 355.798H715.331L742.975 370.116L743.177 370.226L743.379 370.116L771.023 355.798H786.278Z" fill="#FF0069"/>
<path d="M707.612 352.802L722.242 349.2L743.581 360.117L764.939 349.2L778.742 352.802" stroke="#2C2C4F" stroke-width="0.45" stroke-linecap="round" stroke-linejoin="round"/>
<g style="mix-blend-mode:multiply">
<path d="M783.705 351.148L782.473 352.802H778.797L764.259 346.516L757.771 349.696V291.156L743.067 281.249V356.607H742.552L743.085 356.864V399.561H743.195C744.658 399.561 746.06 398.98 747.094 397.946C748.128 396.912 748.709 395.509 748.709 394.047V392.871H750.088V366.624L770.986 355.798H786.241L783.705 351.148Z" fill="#B6B6B6"/>
</g>
<g style="mix-blend-mode:color-dodge">
<path style="mix-blend-mode:color-dodge" d="M741.982 268.052C756.182 268.034 770.067 272.228 781.883 280.103C793.698 287.979 802.912 299.182 808.358 312.295C813.805 325.409 815.239 339.843 812.48 353.772C809.721 367.701 802.893 380.498 792.859 390.545C782.824 400.592 770.036 407.437 756.11 410.214C742.185 412.991 727.749 411.575 714.629 406.145C701.508 400.715 690.293 391.516 682.403 379.711C674.512 367.906 670.3 354.025 670.3 339.826C670.32 320.812 677.875 302.581 691.311 289.128C704.747 275.674 722.969 268.096 741.982 268.052ZM741.982 265.571C727.296 265.571 712.94 269.926 700.728 278.085C688.517 286.244 679 297.841 673.379 311.41C667.759 324.978 666.289 339.908 669.154 354.312C672.019 368.716 679.091 381.947 689.476 392.332C699.861 402.717 713.092 409.789 727.496 412.654C741.9 415.519 756.83 414.049 770.399 408.429C783.967 402.808 795.564 393.291 803.723 381.08C811.882 368.869 816.237 354.512 816.237 339.826C816.237 320.132 808.414 301.245 794.489 287.319C780.563 273.394 761.676 265.571 741.982 265.571Z" fill="url(#paint7_linear_0)"/>
</g>
<path style="mix-blend-mode:multiply" d="M175.952 428.325L97.0648 473.614V530.739L177.459 578.674L255.96 532.246V475.121L175.952 428.325Z" fill="url(#paint8_linear_0)"/>
<path d="M394.913 526.015L347.989 553.567L223.593 482.105" stroke="#FF0069" stroke-width="0.7" stroke-linecap="round" stroke-linejoin="round"/>
<path d="M347.786 556.581C351.705 556.581 354.881 554.458 354.881 551.839C354.881 549.22 351.705 547.097 347.786 547.097C343.868 547.097 340.692 549.22 340.692 551.839C340.692 554.458 343.868 556.581 347.786 556.581Z" fill="#FF0069"/>
<path d="M283.916 476.72L177.275 414.357L72.1599 474.717L179.297 536.069L283.916 476.72Z" stroke="#FF0069" stroke-width="0.7" stroke-linecap="round" stroke-linejoin="round"/>
<g style="mix-blend-mode:color-dodge">
<path style="mix-blend-mode:color-dodge" d="M177.275 414.357L283.879 476.72L179.297 536.069L72.1599 474.717L177.275 414.357ZM177.275 410.479C176.629 410.494 175.997 410.671 175.437 410.993L70.23 471.353C69.6381 471.693 69.1463 472.183 68.8044 472.773C68.4624 473.364 68.2823 474.034 68.2823 474.717C68.2823 475.399 68.4624 476.069 68.8044 476.66C69.1463 477.251 69.6381 477.74 70.23 478.08L177.367 539.433C177.952 539.766 178.614 539.942 179.288 539.942C179.961 539.942 180.623 539.766 181.208 539.433L285.827 480.084C286.415 479.743 286.903 479.253 287.242 478.665C287.581 478.076 287.759 477.409 287.759 476.729C287.759 476.05 287.581 475.383 287.242 474.794C286.903 474.205 286.415 473.716 285.827 473.375L179.223 411.012C178.632 410.665 177.96 410.481 177.275 410.479Z" fill="url(#paint9_linear_0)"/>
</g>
<path d="M178.984 520.538V461.538L98.5903 415.478V472.603L178.984 520.538Z" fill="url(#paint10_linear_0)"/>
<path d="M178.984 461.538V520.538L257.485 474.129V416.985L178.984 461.538Z" fill="url(#paint11_linear_0)"/>
<path d="M257.485 416.985L177.477 370.19L98.5903 415.478L178.984 461.538L257.485 416.985Z" fill="url(#paint12_linear_0)"/>
<path d="M249.931 417.114L178.654 457.403L105.409 416.562L178.084 375.152L249.931 417.114Z" fill="url(#paint13_radial_0)"/>
<g style="mix-blend-mode:color-dodge">
<path style="mix-blend-mode:color-dodge" d="M178.286 268.052C192.485 268.034 206.371 272.228 218.186 280.103C230.002 287.979 239.215 299.182 244.662 312.295C250.108 325.409 251.543 339.843 248.784 353.772C246.025 367.701 239.196 380.498 229.162 390.545C219.128 400.592 206.339 407.437 192.414 410.214C178.489 412.991 164.053 411.575 150.932 406.145C137.812 400.715 126.597 391.516 118.706 379.711C110.816 367.906 106.604 354.025 106.604 339.826C106.623 320.812 114.179 302.581 127.615 289.128C141.051 275.674 159.272 268.096 178.286 268.052ZM178.286 265.571C163.6 265.571 149.243 269.926 137.032 278.085C124.821 286.244 115.303 297.841 109.683 311.41C104.063 324.978 102.592 339.908 105.458 354.312C108.323 368.716 115.395 381.947 125.78 392.332C136.164 402.717 149.395 409.789 163.8 412.654C178.204 415.519 193.134 414.049 206.702 408.429C220.271 402.808 231.868 393.291 240.027 381.08C248.186 368.869 252.541 354.512 252.541 339.826C252.541 320.132 244.718 301.245 230.792 287.319C216.867 273.394 197.98 265.571 178.286 265.571Z" fill="url(#paint14_linear_0)"/>
</g>
<path d="M157.241 304.977C157.68 301.411 159.429 298.136 162.148 295.787C163.972 294.498 165.932 293.413 167.993 292.552C170.998 291.076 173.833 289.276 176.448 287.185C178.101 285.965 179.515 284.451 180.62 282.719C181.171 281.852 181.535 280.879 181.687 279.863C181.839 278.846 181.776 277.81 181.502 276.819C186.741 281.414 192.236 286.45 193.964 293.196C194.582 296.118 194.822 299.108 194.681 302.092C194.681 307.22 194.516 312.715 191.575 316.924C190.639 318.179 189.58 319.337 188.413 320.38C188.141 320.67 187.817 320.906 187.458 321.078C187.02 321.222 186.556 321.272 186.098 321.225C179.784 321.007 173.464 321.142 167.166 321.63C165.052 321.795 163.325 322.181 161.799 320.49C160.137 318.557 158.886 316.306 158.123 313.873C157.133 311.019 156.831 307.971 157.241 304.977Z" fill="white"/>
<path d="M178.176 404.45H174.941C174.069 404.451 173.228 404.131 172.577 403.552C171.926 402.972 171.511 402.173 171.412 401.307L165.788 353.758H186.006L181.797 401.27C181.704 402.159 181.28 402.98 180.609 403.569C179.938 404.159 179.069 404.473 178.176 404.45Z" fill="#B5B5B5"/>
<path d="M168.434 356.827H182.789" stroke="#2C2C4F" stroke-width="0.36" stroke-linecap="round" stroke-linejoin="round"/>
<path d="M188.303 345.524H163.398V350.578H188.303V345.524Z" fill="#2C2C4F"/>
<path d="M186.925 350.119H164.777V354.622H186.925V350.119Z" fill="#FF0069"/>
<path d="M177.073 331.941L175.86 331.702L174.628 331.941L159.649 331.665L163.214 333.227L164.225 345.836H174.628H177.073H187.476L188.487 333.227L192.071 331.665L177.073 331.941Z" fill="#2C2C4F"/>
<path d="M163.214 333.227L175.933 333.577L188.487 333.227" stroke="#2C2C4F" stroke-width="0.36" stroke-linecap="round" stroke-linejoin="round"/>
<path d="M163.986 320.527V308.525" stroke="#2C2C4F" stroke-width="0.36" stroke-linecap="round" stroke-linejoin="round"/>
<path d="M169.611 320.913V305.768" stroke="#2C2C4F" stroke-width="0.36" stroke-linecap="round" stroke-linejoin="round"/>
<path d="M175.933 320.821V303.194" stroke="#2C2C4F" stroke-width="0.36" stroke-linecap="round" stroke-linejoin="round"/>
<path d="M182.569 320.527V302.018" stroke="#2C2C4F" stroke-width="0.36" stroke-linecap="round" stroke-linejoin="round"/>
<path d="M187.476 320.214V299.904" stroke="#2C2C4F" stroke-width="0.36" stroke-linecap="round" stroke-linejoin="round"/>
<path d="M191.612 332.051H160.09L158.583 319.442H193.119L191.612 332.051Z" fill="#2C2C4F"/>
<g style="mix-blend-mode:multiply">
<g style="mix-blend-mode:multiply">
<path d="M189.314 319.442C190.123 318.67 190.861 317.828 191.52 316.924C194.479 312.715 194.607 307.22 194.626 302.092C194.767 299.108 194.526 296.118 193.909 293.196C192.181 286.45 186.686 281.414 181.447 276.819C181.721 277.81 181.784 278.846 181.632 279.863C181.48 280.879 181.116 281.852 180.565 282.719C179.477 284.447 178.081 285.96 176.448 287.185L175.86 287.627V404.45H178.121C179.013 404.433 179.87 404.092 180.529 403.489C181.189 402.887 181.607 402.066 181.705 401.178L185.84 354.548H186.925V350.523H188.303V345.468H187.476L188.45 333.172L191.115 331.996H191.575V331.775L191.997 331.592H191.593L193.045 319.369L189.314 319.442Z" fill="#B6B6B6"/>
</g>
</g>
<path style="mix-blend-mode:multiply" d="M257.338 615.93L178.47 661.219V718.344L258.864 766.279L337.365 719.851V662.726L257.338 615.93Z" fill="url(#paint15_linear_0)"/>
<path d="M448.748 557.996L352.253 613.228L246.163 669.82" stroke="#FF0069" stroke-width="0.7" stroke-linecap="round" stroke-linejoin="round"/>
<path d="M357.491 614.533C361.409 614.533 364.586 612.41 364.586 609.791C364.586 607.172 361.409 605.049 357.491 605.049C353.573 605.049 350.396 607.172 350.396 609.791C350.396 612.41 353.573 614.533 357.491 614.533Z" fill="#FF0069"/>
<path d="M361.204 662.652L254.563 600.289L149.448 660.649L256.585 722.001L361.204 662.652Z" stroke="#FF0069" stroke-width="0.7" stroke-linecap="round" stroke-linejoin="round"/>
<g style="mix-blend-mode:color-dodge">
<path style="mix-blend-mode:color-dodge" d="M254.563 600.289L361.167 662.652L256.585 722.001L149.448 660.649L254.563 600.289ZM254.563 596.411C253.917 596.426 253.285 596.603 252.725 596.925L147.518 657.285C146.926 657.625 146.434 658.115 146.092 658.705C145.75 659.296 145.57 659.966 145.57 660.649C145.57 661.331 145.75 662.001 146.092 662.592C146.434 663.183 146.926 663.673 147.518 664.012L254.655 725.365C255.24 725.698 255.902 725.874 256.576 725.874C257.249 725.874 257.911 725.698 258.496 725.365L363.115 666.016C363.703 665.675 364.191 665.185 364.53 664.597C364.869 664.008 365.047 663.341 365.047 662.661C365.047 661.982 364.869 661.315 364.53 660.726C364.191 660.137 363.703 659.648 363.115 659.307L256.511 596.944C255.92 596.597 255.248 596.413 254.563 596.411Z" fill="url(#paint16_linear_0)"/>
</g>
<path d="M259.232 710.697V651.679L178.837 605.619V662.762L259.232 710.697Z" fill="url(#paint17_linear_0)"/>
<path d="M259.232 651.679V710.698L337.733 664.27V607.145L259.232 651.679Z" fill="url(#paint18_linear_0)"/>
<path d="M337.733 607.144L257.724 560.331L178.837 605.619L259.232 651.679L337.733 607.144Z" fill="url(#paint19_linear_0)"/>
<path d="M330.546 606.63L259.268 646.919L186.024 606.06L258.717 564.65L330.546 606.63Z" fill="url(#paint20_radial_0)"/>
<path d="M254.545 587.974C279.151 587.974 299.098 568.027 299.098 543.421C299.098 518.815 279.151 498.868 254.545 498.868C229.939 498.868 209.992 518.815 209.992 543.421C209.992 568.027 229.939 587.974 254.545 587.974Z" fill="#2C2C4F"/>
<path d="M254.545 584.96C277.486 584.96 296.083 566.362 296.083 543.421C296.083 520.48 277.486 501.882 254.545 501.882C231.603 501.882 213.006 520.48 213.006 543.421C213.006 566.362 231.603 584.96 254.545 584.96Z" fill="#FF0069"/>
<path d="M284.173 543.439L237.562 516.531V570.329L284.173 543.439Z" fill="white"/>
<g style="mix-blend-mode:multiply">
<path d="M254.545 498.886V587.992C266.361 587.992 277.693 583.298 286.048 574.943C294.404 566.588 299.098 555.256 299.098 543.439C299.098 531.623 294.404 520.291 286.048 511.936C277.693 503.58 266.361 498.886 254.545 498.886Z" fill="#B6B6B6"/>
</g>
<g style="mix-blend-mode:color-dodge">
<path style="mix-blend-mode:color-dodge" d="M254.545 471.647C268.74 471.647 282.617 475.857 294.42 483.743C306.223 491.63 315.423 502.839 320.855 515.954C326.287 529.069 327.709 543.501 324.939 557.423C322.17 571.346 315.334 584.135 305.296 594.173C295.259 604.211 282.47 611.046 268.547 613.816C254.624 616.585 240.193 615.164 227.078 609.731C213.963 604.299 202.753 595.1 194.867 583.296C186.98 571.493 182.771 557.616 182.771 543.421C182.79 524.391 190.358 506.147 203.814 492.691C217.27 479.235 235.515 471.667 254.545 471.647ZM254.545 469.166C239.858 469.166 225.502 473.521 213.291 481.68C201.079 489.839 191.562 501.436 185.942 515.005C180.322 528.573 178.851 543.503 181.716 557.907C184.581 572.312 191.654 585.543 202.038 595.927C212.423 606.312 225.654 613.384 240.058 616.249C254.462 619.115 269.392 617.644 282.961 612.024C296.529 606.404 308.126 596.886 316.286 584.675C324.445 572.464 328.8 558.107 328.8 543.421C328.8 523.727 320.977 504.84 307.051 490.915C293.125 476.989 274.238 469.166 254.545 469.166Z" fill="url(#paint21_linear_0)"/>
</g>
<path style="mix-blend-mode:multiply" d="M666.257 615.93L587.37 661.219V718.344L667.764 766.279L746.283 719.851V662.726L666.257 615.93Z" fill="url(#paint22_linear_0)"/>
<path d="M467.275 551.766L574.265 613.228L680.354 669.82" stroke="#FF0069" stroke-width="0.7" stroke-linecap="round" stroke-linejoin="round"/>
<path d="M569.026 614.533C572.945 614.533 576.121 612.41 576.121 609.791C576.121 607.172 572.945 605.049 569.026 605.049C565.108 605.049 561.932 607.172 561.932 609.791C561.932 612.41 565.108 614.533 569.026 614.533Z" fill="#FF0069"/>
<path d="M769.185 662.652L662.562 600.289L557.447 660.649L664.584 722.001L769.185 662.652Z" stroke="#FF0069" stroke-width="0.7" stroke-linecap="round" stroke-linejoin="round"/>
<g style="mix-blend-mode:color-dodge">
<path style="mix-blend-mode:color-dodge" d="M662.562 600.289L769.166 662.652L664.547 722.001L557.41 660.649L662.525 600.289H662.562ZM662.525 596.411C661.88 596.426 661.248 596.603 660.687 596.925L555.572 657.285C554.98 657.625 554.489 658.115 554.147 658.705C553.805 659.296 553.625 659.966 553.625 660.649C553.625 661.331 553.805 662.001 554.147 662.592C554.489 663.183 554.98 663.673 555.572 664.012L662.709 725.365C663.294 725.698 663.956 725.874 664.63 725.874C665.304 725.874 665.966 725.698 666.551 725.365L771.17 666.016C771.757 665.675 772.245 665.185 772.584 664.597C772.923 664.008 773.101 663.341 773.101 662.661C773.101 661.982 772.923 661.315 772.584 660.726C772.245 660.137 771.757 659.648 771.17 659.307L664.566 596.944C663.975 596.597 663.303 596.413 662.617 596.411H662.525Z" fill="url(#paint23_linear_0)"/>
</g>
<path d="M667.231 710.697V651.679L586.837 605.619V662.762L667.231 710.697Z" fill="url(#paint24_linear_0)"/>
<path d="M667.231 651.679V710.698L745.732 664.27V607.145L667.231 651.679Z" fill="url(#paint25_linear_0)"/>
<path d="M745.732 607.144L665.724 560.331L586.837 605.619L667.231 651.679L745.732 607.144Z" fill="url(#paint26_linear_0)"/>
<path d="M738.545 606.63L667.268 646.919L594.023 606.06L666.716 564.65L738.545 606.63Z" fill="url(#paint27_radial_0)"/>
<g style="mix-blend-mode:color-dodge">
<path style="mix-blend-mode:color-dodge" d="M662.525 471.647C676.721 471.647 690.598 475.857 702.401 483.743C714.204 491.63 723.404 502.839 728.836 515.954C734.268 529.069 735.69 543.501 732.92 557.423C730.151 571.346 723.315 584.135 713.277 594.173C703.24 604.211 690.451 611.046 676.528 613.816C662.605 616.585 648.174 615.164 635.059 609.731C621.944 604.299 610.734 595.1 602.848 583.296C594.961 571.493 590.752 557.616 590.752 543.421C590.771 524.391 598.339 506.147 611.795 492.691C625.251 479.235 643.496 471.667 662.525 471.647ZM662.525 469.166C647.839 469.166 633.483 473.521 621.272 481.68C609.06 489.839 599.543 501.436 593.923 515.005C588.302 528.573 586.832 543.503 589.697 557.907C592.562 572.312 599.634 585.543 610.019 595.927C620.404 606.312 633.635 613.384 648.039 616.249C662.443 619.115 677.373 617.644 690.942 612.024C704.51 606.404 716.107 596.886 724.266 584.675C732.426 572.464 736.781 558.107 736.781 543.421C736.781 523.727 728.957 504.84 715.032 490.915C701.106 476.989 682.219 469.166 662.525 469.166Z" fill="url(#paint28_linear_0)"/>
</g>
<path d="M677.082 504.786H647.969C632.235 504.786 619.48 517.541 619.48 533.275V553.603C619.48 569.337 632.235 582.092 647.969 582.092H677.082C692.817 582.092 705.571 569.337 705.571 553.603V533.275C705.571 517.541 692.817 504.786 677.082 504.786Z" fill="#2C2C4F"/>
<path d="M677.082 507.212H647.969C633.574 507.212 621.906 518.881 621.906 533.275V553.603C621.906 567.998 633.574 579.666 647.969 579.666H677.082C691.477 579.666 703.145 567.998 703.145 553.603V533.275C703.145 518.881 691.477 507.212 677.082 507.212Z" fill="#FF0069"/>
<path d="M684.912 520.63V519.693L649.568 523.368V523.92H649.384V549.523C647.481 548.38 645.256 547.892 643.049 548.134C640.843 548.377 638.776 549.336 637.167 550.866C635.558 552.395 634.495 554.41 634.142 556.602C633.788 558.793 634.162 561.04 635.208 562.998C636.253 564.957 637.913 566.518 639.931 567.443C641.949 568.367 644.214 568.605 646.38 568.119C648.546 567.632 650.493 566.449 651.922 564.75C653.351 563.051 654.183 560.93 654.291 558.713C654.291 558.548 654.291 558.382 654.291 558.217C654.291 558.051 654.291 557.886 654.291 557.721V536.786L680.023 534.066V545.516C678.147 544.383 675.954 543.888 673.773 544.106C671.592 544.323 669.54 545.241 667.924 546.722C666.308 548.203 665.215 550.167 664.809 552.321C664.402 554.475 664.705 556.703 665.67 558.671C666.636 560.639 668.213 562.241 670.165 563.237C672.117 564.234 674.34 564.572 676.5 564.2C678.66 563.828 680.642 562.767 682.148 561.175C683.655 559.583 684.605 557.545 684.857 555.368V520.446L684.912 520.63ZM654.328 532.816V529.011L680.06 526.291V530.096L654.328 532.816Z" fill="white"/>
<g style="mix-blend-mode:multiply">
<path d="M674.656 504.786H660.099V582.092H674.656C682.209 582.083 689.45 579.078 694.79 573.737C700.131 568.397 703.136 561.156 703.145 553.603V533.275C703.136 525.722 700.131 518.482 694.79 513.141C689.45 507.8 682.209 504.796 674.656 504.786Z" fill="#B6B6B6"/>
</g>
<path style="mix-blend-mode:multiply" d="M458.746 467.953L379.878 513.241V570.366L460.272 618.301L538.773 571.892V514.748L458.746 467.953Z" fill="url(#paint29_linear_0)"/>
<path d="M565.185 520.317L458.563 457.954L353.447 518.296L460.584 579.666L565.185 520.317Z" stroke="#FF0069" stroke-width="0.7" stroke-linecap="round" stroke-linejoin="round"/>
<g style="mix-blend-mode:color-dodge">
<path style="mix-blend-mode:color-dodge" d="M458.563 457.954L565.167 520.317L460.548 579.666L353.447 518.295L458.563 457.936V457.954ZM458.563 454.057C457.917 454.073 457.285 454.25 456.725 454.572L351.609 514.932C351.018 515.272 350.526 515.761 350.184 516.352C349.842 516.943 349.662 517.613 349.662 518.295C349.662 518.978 349.842 519.648 350.184 520.239C350.526 520.829 351.018 521.319 351.609 521.659L458.746 583.011C459.332 583.345 459.994 583.52 460.667 583.52C461.341 583.52 462.003 583.345 462.588 583.011L567.207 523.662C567.794 523.321 568.282 522.832 568.621 522.243C568.96 521.655 569.138 520.987 569.138 520.308C569.138 519.629 568.96 518.961 568.621 518.373C568.282 517.784 567.794 517.295 567.207 516.954L460.603 454.59C460.012 454.244 459.34 454.06 458.654 454.057H458.563Z" fill="url(#paint30_linear_0)"/>
</g>
<path d="M460.272 564.135V505.117L379.878 459.075V516.2L460.272 564.135Z" fill="url(#paint31_linear_0)"/>
<path d="M460.272 505.117V564.135L538.773 517.707V460.582L460.272 505.117Z" fill="url(#paint32_linear_0)"/>
<path d="M538.773 460.582L458.746 413.787L379.878 459.075L460.272 505.117L538.773 460.582Z" fill="url(#paint33_linear_0)"/>
<path d="M531.586 460.068L460.309 500.357L387.064 459.516L459.739 418.106L531.586 460.068Z" fill="url(#paint34_radial_0)"/>
<g style="mix-blend-mode:color-dodge">
<path style="mix-blend-mode:color-dodge" d="M459.941 448.562C471.612 448.562 481.464 453.69 481.464 459.737C481.464 465.784 471.612 470.912 459.941 470.912C448.27 470.912 438.418 465.784 438.418 459.737C438.418 453.69 448.27 448.562 459.941 448.562ZM459.941 446.081C446.689 446.081 435.937 452.201 435.937 459.737C435.937 467.273 446.689 473.393 459.941 473.393C473.193 473.393 483.945 467.273 483.945 459.737C483.945 452.201 473.193 446.081 459.941 446.081Z" fill="url(#paint35_linear_0)"/>
</g>
<path d="M502.84 391.308L459.316 331.849L415.792 391.308L459.316 417.187L502.84 391.308Z" fill="#FF0069"/>
<path d="M459.316 420.477L415.792 394.58L459.316 454.039L502.84 394.58L459.316 420.477Z" fill="#FF0069"/>
<g style="mix-blend-mode:multiply">
<g style="mix-blend-mode:multiply">
<path d="M459.316 331.849V417.187L502.84 391.308L459.316 331.849Z" fill="#B6B6B6"/>
</g>
<g style="mix-blend-mode:multiply">
<path d="M459.316 454.039L502.84 394.58L459.316 420.477V454.039Z" fill="#B6B6B6"/>
</g>
</g>
<g style="mix-blend-mode:soft-light">
<path d="M455.824 344.439C455.824 345.027 424.578 389.047 424.578 389.047L456.026 407.85L455.824 344.439Z" fill="#FF0069"/>
</g>
<g style="mix-blend-mode:soft-light">
<path d="M455.383 422.867L455.64 443.838L424.504 403.549L455.383 422.867Z" fill="#FF0069"/>
</g>
<path d="M612.697 340.469H613.69C614.406 340.469 615.094 340.184 615.6 339.678C616.107 339.171 616.392 338.484 616.392 337.767C616.392 337.051 616.107 336.363 615.6 335.857C615.094 335.35 614.406 335.065 613.69 335.065H612.697C612 335.065 611.332 335.342 610.839 335.835C610.346 336.328 610.069 336.997 610.069 337.694C610.069 338.391 610.346 339.059 610.839 339.552C611.332 340.045 612 340.322 612.697 340.322V340.469Z" fill="white"/>
<path d="M823.957 588.379V587.386C823.957 586.862 823.749 586.359 823.378 585.989C823.008 585.618 822.505 585.41 821.981 585.41C821.457 585.41 820.955 585.618 820.584 585.989C820.214 586.359 820.005 586.862 820.005 587.386V588.379C819.877 590.989 824.196 590.989 824.049 588.379H823.957Z" fill="white"/>
<path d="M494.091 630.928C494.418 630.928 494.731 630.798 494.962 630.568C495.193 630.337 495.323 630.023 495.323 629.697C495.323 629.37 495.193 629.057 494.962 628.826C494.731 628.595 494.418 628.465 494.091 628.465C493.765 628.465 493.451 628.595 493.22 628.826C492.99 629.057 492.86 629.37 492.86 629.697C492.86 630.023 492.99 630.337 493.22 630.568C493.451 630.798 493.765 630.928 494.091 630.928Z" fill="white"/>
<path d="M530.079 766.058C530.461 765.947 530.796 765.714 531.035 765.396C531.274 765.078 531.403 764.691 531.403 764.294C531.403 763.896 531.274 763.509 531.035 763.191C530.796 762.873 530.461 762.64 530.079 762.529C529.697 762.64 529.362 762.873 529.123 763.191C528.885 763.509 528.756 763.896 528.756 764.294C528.756 764.691 528.885 765.078 529.123 765.396C529.362 765.714 529.697 765.947 530.079 766.058Z" fill="white"/>
<path d="M812.598 82.6897C812.766 82.6625 812.919 82.5764 813.03 82.4467C813.14 82.317 813.201 82.1523 813.201 81.982C813.201 81.8118 813.14 81.647 813.03 81.5174C812.919 81.3877 812.766 81.3016 812.598 81.2744C812.43 81.3016 812.277 81.3877 812.167 81.5174C812.056 81.647 811.996 81.8118 811.996 81.982C811.996 82.1523 812.056 82.317 812.167 82.4467C812.277 82.5764 812.43 82.6625 812.598 82.6897Z" fill="white"/>
<path d="M207.565 154.923C207.829 154.923 208.081 154.818 208.267 154.632C208.453 154.446 208.558 154.194 208.558 153.93C208.558 153.667 208.453 153.415 208.267 153.229C208.081 153.043 207.829 152.938 207.565 152.938C207.302 152.938 207.05 153.043 206.864 153.229C206.677 153.415 206.573 153.667 206.573 153.93C206.573 154.194 206.677 154.446 206.864 154.632C207.05 154.818 207.302 154.923 207.565 154.923Z" fill="white"/>
<path d="M355.488 351.828C356.014 351.828 356.519 351.619 356.891 351.247C357.263 350.874 357.473 350.369 357.473 349.843C357.473 349.316 357.263 348.812 356.891 348.439C356.519 348.067 356.014 347.858 355.488 347.858C354.961 347.858 354.456 348.067 354.084 348.439C353.712 348.812 353.503 349.316 353.503 349.843C353.503 350.369 353.712 350.874 354.084 351.247C354.456 351.619 354.961 351.828 355.488 351.828Z" fill="white"/>
<path d="M96.9545 657.23C97.5653 657.275 98.172 657.099 98.6638 656.734C98.7595 656.632 98.8127 656.497 98.8127 656.357C98.8127 656.217 98.7595 656.082 98.6638 655.98C98.172 655.615 97.5653 655.439 96.9545 655.484C95.8149 655.355 95.8149 657.322 96.9545 657.322V657.23Z" fill="white"/>
<path d="M146.268 769.679C146.634 769.679 146.984 769.534 147.243 769.275C147.501 769.017 147.647 768.666 147.647 768.3C147.647 767.935 147.501 767.584 147.243 767.326C146.984 767.067 146.634 766.922 146.268 766.922C145.902 766.922 145.552 767.067 145.293 767.326C145.035 767.584 144.89 767.935 144.89 768.3C144.89 768.666 145.035 769.017 145.293 769.275C145.552 769.534 145.902 769.679 146.268 769.679Z" fill="white"/>
<path d="M86.386 207.784C86.8735 207.784 87.341 207.59 87.6857 207.246C88.0303 206.901 88.224 206.433 88.224 205.946C88.224 205.458 88.0303 204.991 87.6857 204.646C87.341 204.302 86.8735 204.108 86.386 204.108C85.8985 204.108 85.431 204.302 85.0863 204.646C84.7416 204.991 84.548 205.458 84.548 205.946C84.548 206.433 84.7416 206.901 85.0863 207.246C85.431 207.59 85.8985 207.784 86.386 207.784Z" fill="white"/>
<path d="M819.252 179.368C819.606 179.328 819.934 179.159 820.172 178.893C820.409 178.627 820.541 178.282 820.541 177.926C820.541 177.569 820.409 177.224 820.172 176.958C819.934 176.692 819.606 176.523 819.252 176.483C818.897 176.523 818.57 176.692 818.332 176.958C818.094 177.224 817.963 177.569 817.963 177.926C817.963 178.282 818.094 178.627 818.332 178.893C818.57 179.159 818.897 179.328 819.252 179.368Z" fill="white"/>
<path d="M346.428 222.18C346.82 222.137 347.183 221.952 347.446 221.658C347.71 221.365 347.856 220.984 347.856 220.59C347.856 220.195 347.71 219.815 347.446 219.521C347.183 219.228 346.82 219.042 346.428 219C346.036 219.042 345.673 219.228 345.409 219.521C345.146 219.815 345 220.195 345 220.59C345 220.984 345.146 221.365 345.409 221.658C345.673 221.952 346.036 222.137 346.428 222.18Z" fill="white"/>
<path d="M432.794 715.274H433.786C434.196 715.274 434.589 715.111 434.878 714.822C435.168 714.532 435.33 714.14 435.33 713.73C435.33 713.321 435.168 712.928 434.878 712.638C434.589 712.349 434.196 712.186 433.786 712.186H432.794C430.717 712.039 430.717 715.568 432.794 715.421V715.274Z" fill="white"/>
<path d="M847.318 740.418C847.673 740.378 848 740.209 848.238 739.942C848.476 739.676 848.607 739.332 848.607 738.975C848.607 738.618 848.476 738.274 848.238 738.008C848 737.742 847.673 737.572 847.318 737.532C846.963 737.572 846.636 737.742 846.398 738.008C846.161 738.274 846.029 738.618 846.029 738.975C846.029 739.332 846.161 739.676 846.398 739.942C846.636 740.209 846.963 740.378 847.318 740.418Z" fill="white"/>
<path d="M570.056 395.48C570.494 395.48 570.915 395.306 571.225 394.996C571.536 394.686 571.71 394.265 571.71 393.826C571.71 393.387 571.536 392.967 571.225 392.657C570.915 392.346 570.494 392.172 570.056 392.172C569.617 392.172 569.196 392.346 568.886 392.657C568.576 392.967 568.401 393.387 568.401 393.826C568.401 394.265 568.576 394.686 568.886 394.996C569.196 395.306 569.617 395.48 570.056 395.48Z" fill="white"/>
<path d="M419.468 284.98C419.799 284.997 420.13 284.997 420.461 284.98C420.948 284.98 421.416 284.786 421.76 284.442C422.105 284.097 422.299 283.629 422.299 283.142C422.299 282.654 422.105 282.187 421.76 281.842C421.416 281.498 420.948 281.304 420.461 281.304C420.13 281.287 419.799 281.287 419.468 281.304C418.981 281.304 418.513 281.498 418.169 281.842C417.824 282.187 417.63 282.654 417.63 283.142C417.63 283.629 417.824 284.097 418.169 284.442C418.513 284.786 418.981 284.98 419.468 284.98Z" fill="white"/>
<path d="M872.572 272.867C873.011 272.867 873.432 272.693 873.742 272.383C874.052 272.073 874.226 271.652 874.226 271.213C874.226 270.775 874.052 270.354 873.742 270.044C873.432 269.733 873.011 269.559 872.572 269.559C872.133 269.559 871.713 269.733 871.402 270.044C871.092 270.354 870.918 270.775 870.918 271.213C870.918 271.652 871.092 272.073 871.402 272.383C871.713 272.693 872.133 272.867 872.572 272.867Z" fill="white"/>
<path d="M74.4758 585.309C74.3455 584.8 74.121 584.32 73.8141 583.894C73.7243 583.753 73.6007 583.638 73.4545 583.558C73.3084 583.478 73.1444 583.436 72.9778 583.436C72.8112 583.436 72.6472 583.478 72.501 583.558C72.3549 583.638 72.2312 583.753 72.1415 583.894C71.8346 584.32 71.6101 584.8 71.4798 585.309C70.7446 587.809 75.1558 587.809 74.4758 585.309Z" fill="white"/>
<path d="M714.725 771.701C715.219 771.201 715.663 770.653 716.048 770.065C716.14 769.9 716.177 769.71 716.151 769.524C716.125 769.337 716.039 769.164 715.906 769.031C715.773 768.897 715.599 768.811 715.413 768.786C715.226 768.76 715.036 768.796 714.872 768.888C714.284 769.274 713.736 769.717 713.236 770.212C712.262 771.149 713.787 772.693 714.725 771.701Z" fill="white"/>
<path d="M678.772 170.544C678.977 170.544 679.173 170.463 679.318 170.318C679.463 170.173 679.544 169.977 679.544 169.772C679.544 169.567 679.463 169.371 679.318 169.226C679.173 169.081 678.977 169 678.772 169C678.567 169 678.371 169.081 678.226 169.226C678.081 169.371 678 169.567 678 169.772C678 169.977 678.081 170.173 678.226 170.318C678.371 170.463 678.567 170.544 678.772 170.544Z" fill="white"/>
<path d="M635.772 218.544C635.977 218.544 636.173 218.462 636.318 218.318C636.463 218.173 636.544 217.977 636.544 217.772C636.544 217.567 636.463 217.371 636.318 217.226C636.173 217.081 635.977 217 635.772 217C635.567 217 635.371 217.081 635.226 217.226C635.081 217.371 635 217.567 635 217.772C635 217.977 635.081 218.173 635.226 218.318C635.371 218.462 635.567 218.544 635.772 218.544Z" fill="white"/>
<defs>
<linearGradient id="paint0_linear_0" x1="822.965" y1="448.672" x2="626.354" y2="571.984" gradientUnits="userSpaceOnUse">
<stop stop-color="#040849"/>
<stop offset="0.07" stop-color="#03175D"/>
<stop offset="0.53" stop-color="#0077E1"/>
<stop offset="1" stop-color="#01FFCA"/>
</linearGradient>
<linearGradient id="paint1_linear_0" x1="630.857" y1="475.213" x2="850.351" y2="475.213" gradientUnits="userSpaceOnUse">
<stop stop-color="#FEFFFF"/>
<stop offset="0.5" stop-opacity="0"/>
<stop offset="1" stop-color="#FEFFFF"/>
</linearGradient>
<linearGradient id="paint2_linear_0" x1="33192.6" y1="33904.5" x2="25150" y2="31455" gradientUnits="userSpaceOnUse">
<stop stop-color="#040849"/>
<stop offset="0.07" stop-color="#03175D"/>
<stop offset="0.53" stop-color="#0077E1"/>
<stop offset="1" stop-color="#01FFCA"/>
</linearGradient>
<linearGradient id="paint3_linear_0" x1="746.522" y1="498.004" x2="845.204" y2="411.14" gradientUnits="userSpaceOnUse">
<stop stop-color="#040849"/>
<stop offset="0.53" stop-color="#0077E1"/>
<stop offset="1" stop-color="#01FFCA"/>
</linearGradient>
<linearGradient id="paint4_linear_0" x1="70494.1" y1="23985.6" x2="61680.9" y2="33602.5" gradientUnits="userSpaceOnUse">
<stop stop-color="#040849"/>
<stop offset="0.07" stop-color="#03175D"/>
<stop offset="0.53" stop-color="#0077E1"/>
<stop offset="1" stop-color="#01FFCA"/>
</linearGradient>
<radialGradient id="paint5_radial_0" cx="0" cy="0" r="1" gradientUnits="userSpaceOnUse" gradientTransform="translate(772.658 397.245) scale(196.225)">
<stop stop-color="#012385"/>
<stop offset="0.47" stop-color="#00061C"/>
<stop offset="1" stop-color="#010413"/>
</radialGradient>
<linearGradient id="paint6_linear_0" x1="7571.97" y1="4209.24" x2="7571.97" y2="4537.28" gradientUnits="userSpaceOnUse">
<stop stop-color="#040849"/>
<stop offset="0.53" stop-color="#0077E1"/>
<stop offset="1" stop-color="#01FFCA"/>
</linearGradient>
<linearGradient id="paint7_linear_0" x1="60619.9" y1="41884.1" x2="60619.9" y2="29884.5" gradientUnits="userSpaceOnUse">
<stop stop-color="#FEFFFF"/>
<stop offset="0.5" stop-opacity="0"/>
<stop offset="1" stop-color="#FEFFFF"/>
</linearGradient>
<linearGradient id="paint8_linear_0" x1="22471.1" y1="45606.5" x2="6017.31" y2="56514.3" gradientUnits="userSpaceOnUse">
<stop stop-color="#040849"/>
<stop offset="0.07" stop-color="#03175D"/>
<stop offset="0.53" stop-color="#0077E1"/>
<stop offset="1" stop-color="#01FFCA"/>
</linearGradient>
<linearGradient id="paint9_linear_0" x1="8224.04" y1="40997.2" x2="34431.8" y2="40997.2" gradientUnits="userSpaceOnUse">
<stop stop-color="#FEFFFF"/>
<stop offset="0.5" stop-opacity="0"/>
<stop offset="1" stop-color="#FEFFFF"/>
</linearGradient>
<linearGradient id="paint10_linear_0" x1="8023.04" y1="33904.5" x2="-19.5596" y2="31455" gradientUnits="userSpaceOnUse">
<stop stop-color="#040849"/>
<stop offset="0.07" stop-color="#03175D"/>
<stop offset="0.53" stop-color="#0077E1"/>
<stop offset="1" stop-color="#01FFCA"/>
</linearGradient>
<linearGradient id="paint11_linear_0" x1="8035.36" y1="34164.9" x2="13211.8" y2="30711.3" gradientUnits="userSpaceOnUse">
<stop stop-color="#040849"/>
<stop offset="0.53" stop-color="#0077E1"/>
<stop offset="1" stop-color="#01FFCA"/>
</linearGradient>
<linearGradient id="paint12_linear_0" x1="21288.8" y1="23985.6" x2="12475.5" y2="33601.5" gradientUnits="userSpaceOnUse">
<stop stop-color="#040849"/>
<stop offset="0.07" stop-color="#03175D"/>
<stop offset="0.53" stop-color="#0077E1"/>
<stop offset="1" stop-color="#01FFCA"/>
</linearGradient>
<radialGradient id="paint13_radial_0" cx="0" cy="0" r="1" gradientUnits="userSpaceOnUse" gradientTransform="translate(16595.4 22697.1) scale(15429.2 8781.06)">
<stop stop-color="#012385"/>
<stop offset="0.47" stop-color="#00061C"/>
<stop offset="1" stop-color="#010413"/>
</radialGradient>
<linearGradient id="paint14_linear_0" x1="14515.5" y1="41884.1" x2="14515.5" y2="29884.5" gradientUnits="userSpaceOnUse">
<stop stop-color="#FEFFFF"/>
<stop offset="0.5" stop-opacity="0"/>
<stop offset="1" stop-color="#FEFFFF"/>
</linearGradient>
<linearGradient id="paint15_linear_0" x1="29590" y1="61141.7" x2="13136.1" y2="72048" gradientUnits="userSpaceOnUse">
<stop stop-color="#040849"/>
<stop offset="0.07" stop-color="#03175D"/>
<stop offset="0.53" stop-color="#0077E1"/>
<stop offset="1" stop-color="#01FFCA"/>
</linearGradient>
<linearGradient id="paint16_linear_0" x1="17530.3" y1="54279.5" x2="43738.1" y2="54279.5" gradientUnits="userSpaceOnUse">
<stop stop-color="#FEFFFF"/>
<stop offset="0.5" stop-opacity="0"/>
<stop offset="1" stop-color="#FEFFFF"/>
</linearGradient>
<linearGradient id="paint17_linear_0" x1="11613.3" y1="44971.9" x2="3570.23" y2="42522" gradientUnits="userSpaceOnUse">
<stop stop-color="#040849"/>
<stop offset="0.07" stop-color="#03175D"/>
<stop offset="0.53" stop-color="#0077E1"/>
<stop offset="1" stop-color="#01FFCA"/>
</linearGradient>
<linearGradient id="paint18_linear_0" x1="11543" y1="45067.6" x2="16719.1" y2="41615" gradientUnits="userSpaceOnUse">
<stop stop-color="#040849"/>
<stop offset="0.53" stop-color="#0077E1"/>
<stop offset="1" stop-color="#01FFCA"/>
</linearGradient>
<linearGradient id="paint19_linear_0" x1="28308" y1="33625.8" x2="19494.7" y2="43241.7" gradientUnits="userSpaceOnUse">
<stop stop-color="#040849"/>
<stop offset="0.07" stop-color="#03175D"/>
<stop offset="0.53" stop-color="#0077E1"/>
<stop offset="1" stop-color="#01FFCA"/>
</linearGradient>
<radialGradient id="paint20_radial_0" cx="0" cy="0" r="1" gradientUnits="userSpaceOnUse" gradientTransform="translate(23014.7 31374.4) scale(15429.2 8783.03)">
<stop stop-color="#012385"/>
<stop offset="0.47" stop-color="#00061C"/>
<stop offset="1" stop-color="#010413"/>
</radialGradient>
<linearGradient id="paint21_linear_0" x1="20747.5" y1="58538.2" x2="20747.5" y2="46540.1" gradientUnits="userSpaceOnUse">
<stop stop-color="#FEFFFF"/>
<stop offset="0.5" stop-opacity="0"/>
<stop offset="1" stop-color="#FEFFFF"/>
</linearGradient>
<linearGradient id="paint22_linear_0" x1="65357.3" y1="61141.7" x2="48902.7" y2="72049.7" gradientUnits="userSpaceOnUse">
<stop stop-color="#040849"/>
<stop offset="0.07" stop-color="#03175D"/>
<stop offset="0.53" stop-color="#0077E1"/>
<stop offset="1" stop-color="#01FFCA"/>
</linearGradient>
<linearGradient id="paint23_linear_0" x1="66655.7" y1="54279.5" x2="92865.6" y2="54279.5" gradientUnits="userSpaceOnUse">
<stop stop-color="#FEFFFF"/>
<stop offset="0.5" stop-opacity="0"/>
<stop offset="1" stop-color="#FEFFFF"/>
</linearGradient>
<linearGradient id="paint24_linear_0" x1="29867.2" y1="44971.9" x2="21824.1" y2="42522" gradientUnits="userSpaceOnUse">
<stop stop-color="#040849"/>
<stop offset="0.07" stop-color="#03175D"/>
<stop offset="0.53" stop-color="#0077E1"/>
<stop offset="1" stop-color="#01FFCA"/>
</linearGradient>
<linearGradient id="paint25_linear_0" x1="29376.6" y1="45067.6" x2="34552.8" y2="41615" gradientUnits="userSpaceOnUse">
<stop stop-color="#040849"/>
<stop offset="0.53" stop-color="#0077E1"/>
<stop offset="1" stop-color="#01FFCA"/>
</linearGradient>
<linearGradient id="paint26_linear_0" x1="63986" y1="33625.8" x2="55172.7" y2="43241.7" gradientUnits="userSpaceOnUse">
<stop stop-color="#040849"/>
<stop offset="0.07" stop-color="#03175D"/>
<stop offset="0.53" stop-color="#0077E1"/>
<stop offset="1" stop-color="#01FFCA"/>
</linearGradient>
<radialGradient id="paint27_radial_0" cx="0" cy="0" r="1" gradientUnits="userSpaceOnUse" gradientTransform="translate(55503.7 31374.4) scale(15429.2 8783.03)">
<stop stop-color="#012385"/>
<stop offset="0.47" stop-color="#00061C"/>
<stop offset="1" stop-color="#010413"/>
</radialGradient>
<linearGradient id="paint28_linear_0" x1="54120.3" y1="58538.2" x2="54120.3" y2="46540.1" gradientUnits="userSpaceOnUse">
<stop stop-color="#FEFFFF"/>
<stop offset="0.5" stop-opacity="0"/>
<stop offset="1" stop-color="#FEFFFF"/>
</linearGradient>
<linearGradient id="paint29_linear_0" x1="47203.1" y1="48889.2" x2="30749.2" y2="59795.4" gradientUnits="userSpaceOnUse">
<stop stop-color="#040849"/>
<stop offset="0.07" stop-color="#03175D"/>
<stop offset="0.53" stop-color="#0077E1"/>
<stop offset="1" stop-color="#01FFCA"/>
</linearGradient>
<linearGradient id="paint30_linear_0" x1="42091.9" y1="44111.6" x2="68301.9" y2="44111.6" gradientUnits="userSpaceOnUse">
<stop stop-color="#FEFFFF"/>
<stop offset="0.5" stop-opacity="0"/>
<stop offset="1" stop-color="#FEFFFF"/>
</linearGradient>
<linearGradient id="paint31_linear_0" x1="20607.9" y1="36440" x2="12565.3" y2="33990.6" gradientUnits="userSpaceOnUse">
<stop stop-color="#040849"/>
<stop offset="0.07" stop-color="#03175D"/>
<stop offset="0.53" stop-color="#0077E1"/>
<stop offset="1" stop-color="#01FFCA"/>
</linearGradient>
<linearGradient id="paint32_linear_0" x1="20330.4" y1="36664.8" x2="25506.2" y2="33211" gradientUnits="userSpaceOnUse">
<stop stop-color="#040849"/>
<stop offset="0.53" stop-color="#0077E1"/>
<stop offset="1" stop-color="#01FFCA"/>
</linearGradient>
<linearGradient id="paint33_linear_0" x1="45887.4" y1="26190.8" x2="37076" y2="35806.5" gradientUnits="userSpaceOnUse">
<stop stop-color="#040849"/>
<stop offset="0.07" stop-color="#03175D"/>
<stop offset="0.53" stop-color="#0077E1"/>
<stop offset="1" stop-color="#01FFCA"/>
</linearGradient>
<radialGradient id="paint34_radial_0" cx="0" cy="0" r="1" gradientUnits="userSpaceOnUse" gradientTransform="translate(39023.6 24662.3) scale(15429.2 8781.07)">
<stop stop-color="#012385"/>
<stop offset="0.47" stop-color="#00061C"/>
<stop offset="1" stop-color="#010413"/>
</radialGradient>
<linearGradient id="paint35_linear_0" x1="11822.6" y1="8778.09" x2="13076.6" y2="8778.09" gradientUnits="userSpaceOnUse">
<stop stop-color="#FEFFFF"/>
<stop offset="0.5" stop-opacity="0"/>
<stop offset="1" stop-color="#FEFFFF"/>
</linearGradient>
</defs>
</svg>
