<svg width="214" height="244" viewBox="0 0 214 244" fill="none" xmlns="http://www.w3.org/2000/svg">
<circle cx="207.409" cy="5.82871" r="5.59238" transform="rotate(90 207.409 5.82871)" fill="#EC2A7B"/>
<circle cx="173.855" cy="5.82675" r="5.59238" transform="rotate(90 173.855 5.82675)" fill="#EC2A7B"/>
<circle cx="140.301" cy="5.82675" r="5.59238" transform="rotate(90 140.301 5.82675)" fill="#EC2A7B"/>
<circle cx="106.746" cy="5.82675" r="5.59238" transform="rotate(90 106.746 5.82675)" fill="#EC2A7B"/>
<circle cx="73.192" cy="5.82675" r="5.59238" transform="rotate(90 73.192 5.82675)" fill="#EC2A7B"/>
<circle cx="39.6378" cy="5.82675" r="5.59238" transform="rotate(90 39.6378 5.82675)" fill="#EC2A7B"/>
<circle cx="6.0834" cy="5.82675" r="5.59238" transform="rotate(90 6.0834 5.82675)" fill="#EC2A7B"/>
<circle cx="207.409" cy="44.4312" r="5.59238" transform="rotate(90 207.409 44.4312)" fill="#EC2A7B"/>
<circle cx="173.855" cy="44.4312" r="5.59238" transform="rotate(90 173.855 44.4312)" fill="#EC2A7B"/>
<circle cx="140.301" cy="44.4312" r="5.59238" transform="rotate(90 140.301 44.4312)" fill="#EC2A7B"/>
<circle cx="106.746" cy="44.4312" r="5.59238" transform="rotate(90 106.746 44.4312)" fill="#EC2A7B"/>
<circle cx="73.192" cy="44.4312" r="5.59238" transform="rotate(90 73.192 44.4312)" fill="#EC2A7B"/>
<circle cx="39.6378" cy="44.4312" r="5.59238" transform="rotate(90 39.6378 44.4312)" fill="#EC2A7B"/>
<circle cx="6.0834" cy="44.4312" r="5.59238" transform="rotate(90 6.0834 44.4312)" fill="#EC2A7B"/>
<circle cx="207.409" cy="83.0387" r="5.59238" transform="rotate(90 207.409 83.0387)" fill="#EC2A7B"/>
<circle cx="173.855" cy="83.0367" r="5.59238" transform="rotate(90 173.855 83.0367)" fill="#EC2A7B"/>
<circle cx="140.301" cy="83.0367" r="5.59238" transform="rotate(90 140.301 83.0367)" fill="#EC2A7B"/>
<circle cx="106.746" cy="83.0367" r="5.59238" transform="rotate(90 106.746 83.0367)" fill="#EC2A7B"/>
<circle cx="73.192" cy="83.0367" r="5.59238" transform="rotate(90 73.192 83.0367)" fill="#EC2A7B"/>
<circle cx="39.6378" cy="83.0367" r="5.59238" transform="rotate(90 39.6378 83.0367)" fill="#EC2A7B"/>
<circle cx="6.0834" cy="83.0367" r="5.59238" transform="rotate(90 6.0834 83.0367)" fill="#EC2A7B"/>
<circle cx="207.409" cy="121.643" r="5.59238" transform="rotate(90 207.409 121.643)" fill="#EC2A7B"/>
<circle cx="173.855" cy="121.643" r="5.59238" transform="rotate(90 173.855 121.643)" fill="#EC2A7B"/>
<circle cx="140.301" cy="121.643" r="5.59238" transform="rotate(90 140.301 121.643)" fill="#EC2A7B"/>
<circle cx="106.746" cy="121.643" r="5.59238" transform="rotate(90 106.746 121.643)" fill="#EC2A7B"/>
<circle cx="73.192" cy="121.643" r="5.59238" transform="rotate(90 73.192 121.643)" fill="#EC2A7B"/>
<circle cx="39.6378" cy="121.643" r="5.59238" transform="rotate(90 39.6378 121.643)" fill="#EC2A7B"/>
<circle cx="6.0834" cy="121.643" r="5.59238" transform="rotate(90 6.0834 121.643)" fill="#EC2A7B"/>
<circle cx="207.409" cy="160.249" r="5.59238" transform="rotate(90 207.409 160.249)" fill="#EC2A7B"/>
<circle cx="173.855" cy="160.249" r="5.59238" transform="rotate(90 173.855 160.249)" fill="#EC2A7B"/>
<circle cx="140.301" cy="160.249" r="5.59238" transform="rotate(90 140.301 160.249)" fill="#EC2A7B"/>
<circle cx="106.746" cy="160.249" r="5.59238" transform="rotate(90 106.746 160.249)" fill="#EC2A7B"/>
<circle cx="73.192" cy="160.249" r="5.59238" transform="rotate(90 73.192 160.249)" fill="#EC2A7B"/>
<circle cx="39.6378" cy="160.249" r="5.59238" transform="rotate(90 39.6378 160.249)" fill="#EC2A7B"/>
<circle cx="6.0834" cy="160.249" r="5.59238" transform="rotate(90 6.0834 160.249)" fill="#EC2A7B"/>
<circle cx="207.409" cy="198.854" r="5.59238" transform="rotate(90 207.409 198.854)" fill="#EC2A7B"/>
<circle cx="173.855" cy="198.854" r="5.59238" transform="rotate(90 173.855 198.854)" fill="#EC2A7B"/>
<circle cx="140.3" cy="198.854" r="5.59238" transform="rotate(90 140.3 198.854)" fill="#EC2A7B"/>
<circle cx="106.746" cy="198.854" r="5.59238" transform="rotate(90 106.746 198.854)" fill="#EC2A7B"/>
<circle cx="73.192" cy="198.854" r="5.59238" transform="rotate(90 73.192 198.854)" fill="#EC2A7B"/>
<circle cx="39.6378" cy="198.854" r="5.59238" transform="rotate(90 39.6378 198.854)" fill="#EC2A7B"/>
<circle cx="6.0834" cy="198.854" r="5.59238" transform="rotate(90 6.0834 198.854)" fill="#EC2A7B"/>
<circle cx="207.409" cy="237.459" r="5.59238" transform="rotate(90 207.409 237.459)" fill="#EC2A7B"/>
<circle cx="140.3" cy="237.459" r="5.59238" transform="rotate(90 140.3 237.459)" fill="#EC2A7B"/>
<circle cx="39.6378" cy="237.459" r="5.59238" transform="rotate(90 39.6378 237.459)" fill="#EC2A7B"/>
<circle cx="173.855" cy="237.459" r="5.59238" transform="rotate(90 173.855 237.459)" fill="#EC2A7B"/>
<circle cx="106.746" cy="237.459" r="5.59238" transform="rotate(90 106.746 237.459)" fill="#EC2A7B"/>
<circle cx="73.192" cy="237.459" r="5.59238" transform="rotate(90 73.192 237.459)" fill="#EC2A7B"/>
<circle cx="6.0834" cy="237.459" r="5.59238" transform="rotate(90 6.0834 237.459)" fill="#EC2A7B"/>
</svg>
