<svg width="213" height="244" viewBox="0 0 213 244" fill="none" xmlns="http://www.w3.org/2000/svg">
<circle cx="207.408" cy="5.81992" r="5.59238" transform="rotate(90 207.408 5.81992)" fill="#4643D3"/>
<circle cx="173.853" cy="5.81992" r="5.59238" transform="rotate(90 173.853 5.81992)" fill="#4643D3"/>
<circle cx="140.299" cy="5.81992" r="5.59238" transform="rotate(90 140.299 5.81992)" fill="#4643D3"/>
<circle cx="106.745" cy="5.81992" r="5.59238" transform="rotate(90 106.745 5.81992)" fill="#4643D3"/>
<circle cx="73.1905" cy="5.81992" r="5.59238" transform="rotate(90 73.1905 5.81992)" fill="#4643D3"/>
<circle cx="39.6362" cy="5.81992" r="5.59238" transform="rotate(90 39.6362 5.81992)" fill="#4643D3"/>
<circle cx="6.08206" cy="5.81992" r="5.59238" transform="rotate(90 6.08206 5.81992)" fill="#4643D3"/>
<circle cx="207.408" cy="44.4254" r="5.59238" transform="rotate(90 207.408 44.4254)" fill="#4643D3"/>
<circle cx="173.853" cy="44.4254" r="5.59238" transform="rotate(90 173.853 44.4254)" fill="#4643D3"/>
<circle cx="140.299" cy="44.4254" r="5.59238" transform="rotate(90 140.299 44.4254)" fill="#4643D3"/>
<circle cx="106.745" cy="44.4254" r="5.59238" transform="rotate(90 106.745 44.4254)" fill="#4643D3"/>
<circle cx="73.1905" cy="44.4254" r="5.59238" transform="rotate(90 73.1905 44.4254)" fill="#4643D3"/>
<circle cx="39.6362" cy="44.4254" r="5.59238" transform="rotate(90 39.6362 44.4254)" fill="#4643D3"/>
<circle cx="6.08206" cy="44.4254" r="5.59238" transform="rotate(90 6.08206 44.4254)" fill="#4643D3"/>
<circle cx="207.408" cy="83.0328" r="5.59238" transform="rotate(90 207.408 83.0328)" fill="#4643D3"/>
<circle cx="173.853" cy="83.0299" r="5.59238" transform="rotate(90 173.853 83.0299)" fill="#4643D3"/>
<circle cx="140.299" cy="83.0299" r="5.59238" transform="rotate(90 140.299 83.0299)" fill="#4643D3"/>
<circle cx="106.745" cy="83.0299" r="5.59238" transform="rotate(90 106.745 83.0299)" fill="#4643D3"/>
<circle cx="73.1905" cy="83.0299" r="5.59238" transform="rotate(90 73.1905 83.0299)" fill="#4643D3"/>
<circle cx="39.6362" cy="83.0299" r="5.59238" transform="rotate(90 39.6362 83.0299)" fill="#4643D3"/>
<circle cx="6.08206" cy="83.0299" r="5.59238" transform="rotate(90 6.08206 83.0299)" fill="#4643D3"/>
<circle cx="207.408" cy="121.636" r="5.59238" transform="rotate(90 207.408 121.636)" fill="#4643D3"/>
<circle cx="173.853" cy="121.636" r="5.59238" transform="rotate(90 173.853 121.636)" fill="#4643D3"/>
<circle cx="140.299" cy="121.636" r="5.59238" transform="rotate(90 140.299 121.636)" fill="#4643D3"/>
<circle cx="106.745" cy="121.636" r="5.59238" transform="rotate(90 106.745 121.636)" fill="#4643D3"/>
<circle cx="73.1905" cy="121.636" r="5.59238" transform="rotate(90 73.1905 121.636)" fill="#4643D3"/>
<circle cx="39.6362" cy="121.636" r="5.59238" transform="rotate(90 39.6362 121.636)" fill="#4643D3"/>
<circle cx="6.08206" cy="121.636" r="5.59238" transform="rotate(90 6.08206 121.636)" fill="#4643D3"/>
<circle cx="207.408" cy="160.242" r="5.59238" transform="rotate(90 207.408 160.242)" fill="#4643D3"/>
<circle cx="173.853" cy="160.242" r="5.59238" transform="rotate(90 173.853 160.242)" fill="#4643D3"/>
<circle cx="140.299" cy="160.242" r="5.59238" transform="rotate(90 140.299 160.242)" fill="#4643D3"/>
<circle cx="106.745" cy="160.242" r="5.59238" transform="rotate(90 106.745 160.242)" fill="#4643D3"/>
<circle cx="73.1905" cy="160.242" r="5.59238" transform="rotate(90 73.1905 160.242)" fill="#4643D3"/>
<circle cx="39.6362" cy="160.242" r="5.59238" transform="rotate(90 39.6362 160.242)" fill="#4643D3"/>
<circle cx="6.08206" cy="160.242" r="5.59238" transform="rotate(90 6.08206 160.242)" fill="#4643D3"/>
<circle cx="207.408" cy="198.847" r="5.59238" transform="rotate(90 207.408 198.847)" fill="#4643D3"/>
<circle cx="173.853" cy="198.847" r="5.59238" transform="rotate(90 173.853 198.847)" fill="#4643D3"/>
<circle cx="140.299" cy="198.847" r="5.59238" transform="rotate(90 140.299 198.847)" fill="#4643D3"/>
<circle cx="106.745" cy="198.847" r="5.59238" transform="rotate(90 106.745 198.847)" fill="#4643D3"/>
<circle cx="73.1905" cy="198.847" r="5.59238" transform="rotate(90 73.1905 198.847)" fill="#4643D3"/>
<circle cx="39.6362" cy="198.847" r="5.59238" transform="rotate(90 39.6362 198.847)" fill="#4643D3"/>
<circle cx="6.08206" cy="198.847" r="5.59238" transform="rotate(90 6.08206 198.847)" fill="#4643D3"/>
<circle cx="207.408" cy="237.452" r="5.59238" transform="rotate(90 207.408 237.452)" fill="#4643D3"/>
<circle cx="140.299" cy="237.452" r="5.59238" transform="rotate(90 140.299 237.452)" fill="#4643D3"/>
<circle cx="39.6362" cy="237.452" r="5.59238" transform="rotate(90 39.6362 237.452)" fill="#4643D3"/>
<circle cx="173.853" cy="237.452" r="5.59238" transform="rotate(90 173.853 237.452)" fill="#4643D3"/>
<circle cx="106.745" cy="237.452" r="5.59238" transform="rotate(90 106.745 237.452)" fill="#4643D3"/>
<circle cx="73.1905" cy="237.452" r="5.59238" transform="rotate(90 73.1905 237.452)" fill="#4643D3"/>
<circle cx="6.08206" cy="237.452" r="5.59238" transform="rotate(90 6.08206 237.452)" fill="#4643D3"/>
</svg>
