<svg width="39" height="39" viewBox="0 0 39 39" fill="none" xmlns="http://www.w3.org/2000/svg">
<circle cx="19.5" cy="19.5" r="19.5" fill="white"/>
<path d="M14.0084 13.7021C13.8916 14.0927 13.9937 14.5111 14.2768 14.7942L18.6846 19.2021L9.98121 27.9055C9.54174 28.345 9.53346 29.0501 9.96274 29.4793C10.392 29.9086 11.0971 29.9003 11.5366 29.4609L20.24 20.7574L24.6479 25.1653C24.932 25.4494 25.3504 25.5515 25.7399 25.4337C26.1316 25.3179 26.4322 24.9986 26.5271 24.603L29.7658 10.9932C29.8541 10.6187 29.7464 10.2308 29.4789 9.96323C29.2113 9.69571 28.8234 9.58801 28.4489 9.67633L14.8391 12.915C14.6308 12.9657 14.4428 13.0728 14.2952 13.2204C14.1636 13.352 14.0641 13.5179 14.0084 13.7021Z" fill="#FF0069"/>
</svg>
