<svg width="13" height="13" viewBox="0 0 13 13" fill="none" xmlns="http://www.w3.org/2000/svg">
<path d="M5.6659 12.1514C5.52071 12.1514 5.39004 12.1006 5.27388 11.999C5.17225 11.8828 5.12143 11.7522 5.12143 11.607V7.66506H1.28842C1.14323 7.66506 1.01256 7.61424 0.896404 7.51261C0.794771 7.39645 0.743955 7.26578 0.743955 7.12059V5.44365C0.743955 5.28394 0.794771 5.15327 0.896404 5.05163C0.998037 4.93548 1.12871 4.87741 1.28842 4.87741H5.12143V1.06617C5.12143 0.906459 5.17225 0.775789 5.27388 0.674156C5.39004 0.572523 5.52071 0.521706 5.6659 0.521706H7.53885C7.69856 0.521706 7.82923 0.572523 7.93086 0.674156C8.04701 0.775789 8.10509 0.906459 8.10509 1.06617V4.87741H11.8945C12.0543 4.87741 12.1849 4.93548 12.2866 5.05163C12.4027 5.15327 12.4608 5.28394 12.4608 5.44365V7.12059C12.4608 7.2803 12.4027 7.41097 12.2866 7.51261C12.1849 7.61424 12.0543 7.66506 11.8945 7.66506H8.10509V11.607C8.10509 11.7667 8.04701 11.8973 7.93086 11.999C7.82923 12.1006 7.69856 12.1514 7.53885 12.1514H5.6659Z" fill="white"/>
</svg>
