<svg width="56" height="49" viewBox="0 0 56 49" fill="none" xmlns="http://www.w3.org/2000/svg">
<path d="M5.6473 48.9443L19.3576 48.9443C22.1961 48.9443 24.499 46.6414 24.499 43.803L24.499 30.0926C24.499 27.2541 22.1961 24.9512 19.3576 24.9512L10.7887 24.9512L10.7887 18.0961C10.7887 14.315 13.8628 11.2409 17.6438 11.2409L18.5007 11.2409C19.9253 11.2409 21.0714 10.0948 21.0714 8.6702L21.0714 3.52882C21.0714 2.10423 19.9253 0.958131 18.5007 0.958131L17.6438 0.958131C8.17514 0.958132 0.505913 8.62736 0.505914 18.0961L0.505916 43.803C0.505916 46.6414 2.80883 48.9443 5.6473 48.9443ZM36.4956 48.9443L50.2059 48.9443C53.0444 48.9443 55.3473 46.6414 55.3473 43.803L55.3473 30.0926C55.3473 27.2541 53.0444 24.9512 50.2059 24.9512L41.6369 24.9512L41.6369 18.0961C41.6369 14.315 44.7111 11.2409 48.4921 11.2409L49.349 11.2409C50.7736 11.2409 51.9197 10.0948 51.9197 8.6702L51.9197 3.52882C51.9197 2.10423 50.7736 0.958128 49.349 0.958128L48.4921 0.958128C39.0234 0.958129 31.3542 8.62735 31.3542 18.0961L31.3542 43.803C31.3542 46.6414 33.6571 48.9443 36.4956 48.9443Z" fill="#EC2A7B"/>
</svg>
